<svg xmlns="http://www.w3.org/2000/svg" viewBox="0 0 512 512" width="512" height="512">
  <!-- Полноэкранный фон (maskable-safe: без прозрачных углов) -->
  <defs>
    <linearGradient id="dk" x1="0" y1="0" x2="0" y2="1">
      <stop offset="0" stop-color="#3b82f6"/>
      <stop offset="1" stop-color="#2563eb"/>
    </linearGradient>
  </defs>
  <rect width="512" height="512" fill="url(#dk)"/>
  <!-- Знак Diklaro: пузырь + звезда + галочка (из 60-сетки, отмасштабирован в центр) -->
  <g transform="translate(19,39) scale(7.9)">
    <path d="M15 13 H45 C47.2 13 49 14.8 49 17 V30 C49 32.2 47.2 34 45 34 H15 C12.8 34 11 32.2 11 30 V17 C11 14.8 12.8 13 15 13 Z" fill="#fff"/>
    <path d="M30 15 C30.9 21 31.9 22 38.5 23.5 C31.9 25 30.9 26 30 32 C29.1 26 28.1 25 21.5 23.5 C28.1 22 29.1 21 30 15 Z" fill="#2563eb"/>
    <path d="M21 37 l4.5 5 L34 33.5" fill="none" stroke="#fff" stroke-width="3.6" stroke-linecap="round" stroke-linejoin="round"/>
  </g>
</svg>
